<?xml version="1.0" encoding="UTF-8"?>
<svg width="14px" height="17px" viewBox="0 0 14 17" version="1.1" xmlns="http://www.w3.org/2000/svg" xmlns:xlink="http://www.w3.org/1999/xlink">
    <title>yonghu</title>
    <g id="页面-1" stroke="none" stroke-width="1" fill="none" fill-rule="evenodd">
        <g id="pc图标" transform="translate(-37.000000, -445.000000)" fill="#FFFFFF" fill-rule="nonzero">
            <g id="yonghu" transform="translate(37.000000, 445.000000)">
                <path d="M13.9990779,14.0675789 C14.0168981,14.8162501 13.7759584,15.54774 13.3178244,16.1358566 C12.9350602,16.6741856 12.3213459,16.9952506 11.6660179,17 L2.33377809,17 C1.67991267,16.9945118 1.06792576,16.6734436 0.686637763,16.1358566 C0.22752985,15.547997 -0.0149936189,14.8167074 0.000718137505,14.0675789 C-0.00318980773,13.4696777 0.0279724484,12.8720689 0.0940405266,12.2779047 C0.158360704,11.7065376 0.273935078,11.1422807 0.439333416,10.5921168 C0.585772423,10.0874732 0.800923803,9.60591911 1.07859184,9.16132189 C1.33876483,8.75476277 1.69059289,8.41651657 2.10513822,8.17440398 C2.55417198,7.9162087 3.06323474,7.78415575 3.57963211,7.79191427 C4.48250875,8.71428312 5.71708262,9.22562717 6.999898,9.20854285 C8.28432531,9.22691503 9.52082391,8.71547152 10.42483,7.79191427 C10.9414712,7.78205736 11.4510739,7.91425037 11.8993239,8.17440398 C12.3128129,8.41794479 12.664342,8.75590352 12.9258703,9.16132189 C13.2047213,9.61032993 13.4199071,10.0967297 13.5651287,10.606283 C13.7301483,11.1517228 13.8457235,11.7112423 13.9104216,12.2779047 C13.9725088,12.8723561 14.002106,13.469824 13.9990779,14.0675789 L13.9990779,14.0675789 Z M9.96755026,1.24709026 C10.7702503,2.03314715 11.2160844,3.12008647 11.1994059,4.25034285 C11.2160844,5.38059922 10.7702503,6.46753853 9.96755026,7.25359541 C9.19081123,8.06592473 8.1167564,8.51710708 6.999898,8.50022856 C5.8830396,8.51710708 4.80898478,8.06592473 4.03224575,7.25359541 C3.22954572,6.46753853 2.78371164,5.38059922 2.80039009,4.25034285 C2.78371164,3.12008647 3.22954571,2.03314715 4.03224575,1.24709026 C4.80898478,0.434760945 5.8830396,-0.0164214117 6.999898,0.000457115173 C8.1167564,-0.0164214117 9.19081123,0.434760945 9.96755026,1.24709026 Z" id="形状"></path>
            </g>
        </g>
    </g>
</svg>