<?xml version="1.0" encoding="UTF-8"?>
<svg width="14px" height="15px" viewBox="0 0 14 15" version="1.1" xmlns="http://www.w3.org/2000/svg" xmlns:xlink="http://www.w3.org/1999/xlink">
    <title>kefufill</title>
    <g id="页面-1" stroke="none" stroke-width="1" fill="none" fill-rule="evenodd">
        <g id="pc图标" transform="translate(-38.000000, -396.000000)" fill="#FFFFFF" fill-rule="nonzero">
            <g id="kefufill" transform="translate(38.000000, 396.000000)">
                <path d="M7.81997615,10 C7.17699633,10 6.67618291,9.9597603 6.53401651,9.94634707 C6.20444897,9.91415532 5.96535095,9.67003448 6.0041236,9.39640452 C6.03966519,9.12277457 6.33369114,8.92694137 6.66648975,8.95645048 C8.16246792,9.09326546 10.4565165,8.97522901 10.8571673,8.28310618 C10.9993337,8.0363027 11.3579807,7.92899683 11.6584687,8.04971593 C11.9589568,8.16775238 12.0849679,8.46820879 11.9395705,8.71501227 C11.3030528,9.80684945 9.2190227,10 7.81997615,10 Z" id="路径"></path>
                <path d="M13.4372313,10 C13.1272571,10 12.877472,9.73550032 12.877472,9.40726577 L12.877472,7.3645634 L12.1281169,7.08094326 C11.905417,6.99808793 11.7549441,6.77182917 11.7549441,6.52326321 C11.7549441,3.58189928 9.49484092,1.18865517 6.71711092,1.18865517 C3.93938092,1.18865517 1.67927775,3.58189928 1.67927775,6.52326321 C1.67927775,6.71446781 1.59200346,6.89292542 1.44453999,7.00446143 L1.1195185,7.24984067 L1.1195185,9.40407904 C1.1195185,9.73231358 0.869733463,9.99681328 0.559759249,9.99681328 C0.249785035,9.99681328 0,9.7323136 0,9.40407904 L0,6.94391333 C0,6.75270874 0.0872742867,6.57425113 0.234737753,6.46271511 L0.565778162,6.2109624 C0.719260541,2.75971956 3.41874462,0 6.7171109,0 C9.97936372,0.00318672258 12.6577816,2.70235818 12.8654342,6.10261313 L13.6268272,6.38942001 C13.8495271,6.47227534 14,6.6985341 14,6.94710006 L14,9.40726577 C13.9969905,9.73550032 13.7472055,10 13.4372313,10 Z" id="路径"></path>
                <path d="M8.94547815,11.9992688 L8.94547815,11.8354862 C9.46586107,11.4640507 9.88089039,11.1043139 10.1267155,10.5983427 C9.58717733,10.6773093 8.98378854,10.6480624 8.4985235,10.6480624 C7.9047123,10.6480624 7.39709953,10.6626859 7.0874238,10.6305143 C6.436147,10.5632464 5.96684462,9.97245917 6.03708036,9.37582257 C6.11050863,8.77918596 6.70112728,8.34340727 7.34921152,8.41359982 C8.6709203,8.54228615 10.129908,8.40190107 10.7141416,8.17669999 C10.7396819,7.67950281 10.7332968,7.15598343 10.7332968,6.75822569 C10.7332968,4.43017304 9.1881107,3.04971972 6.71070489,3 C6.69793477,3 6.36271877,3 6.34994864,3 C3.87254283,3.04679503 2.38801487,4.4447965 2.38801487,6.77577383 C2.38801487,8.21472094 2.41355513,10.5632464 4.1949887,11.8384109 L4.1949887,12.0021935 C1.81974396,12.3414575 0,13.2364124 0,14.4179868 C0,14.7192298 0.27455787,15 0.603388788,15 L12.2593277,15 C12.5881587,15 13,14.7192298 13,14.4179868 C13.0031879,13.2334877 11.3239154,12.3414575 8.94547815,11.9992688 Z" id="路径"></path>
            </g>
        </g>
    </g>
</svg>