<?xml version="1.0" encoding="UTF-8"?>
<svg width="15px" height="18px" viewBox="0 0 15 18" version="1.1" xmlns="http://www.w3.org/2000/svg" xmlns:xlink="http://www.w3.org/1999/xlink">
    <title>daipingjia</title>
    <g id="页面-1" stroke="none" stroke-width="1" fill="none" fill-rule="evenodd">
        <g id="pc图标" transform="translate(-37.000000, -343.000000)" fill="#FFFFFF" fill-rule="nonzero">
            <g id="daipingjia" transform="translate(37.000000, 343.000000)">
                <path d="M14.9058618,10.1471079 C14.9503907,10.2682837 14.9816588,10.4223095 14.9981805,10.6042353 C15.0130175,10.786107 14.9372024,10.9631188 14.7674744,11.1318866 C14.691605,11.2056504 14.6224746,11.2793963 14.5598661,11.3465543 C14.5004821,11.4171142 14.4461162,11.4710781 14.3982721,11.518508 C14.3389425,11.5792219 14.2845948,11.6234839 14.2368412,11.6561718 L12.2821707,9.73588048 C12.3761017,9.65885859 12.4781668,9.56540272 12.5920253,9.46064287 C12.7073149,9.35577503 12.8030213,9.27216513 12.8804668,9.20831923 C13.061644,9.04108146 13.2627125,8.96893756 13.4769513,8.99357953 C13.6928748,9.0166555 13.8676934,9.06413943 14.0061351,9.14110732 C14.1593595,9.21809321 14.3224752,9.34916904 14.5004821,9.54086877 C14.6785072,9.73085849 14.8135432,9.93236823 14.9058618,10.1471079 L14.9058618,10.1471079 L14.9058618,10.1471079 Z M6.83665481,15.154431 L7.13342965,14.8562974 L7.70857358,14.2828002 C7.93933406,14.0549565 8.19317419,13.7993749 8.46835488,13.5175852 C8.74357179,13.2358136 9.02041914,12.957192 9.29730271,12.6818824 C9.9549465,12.0264673 10.6999452,11.2958123 11.5273351,10.4863354 L13.4588172,12.4066088 L11.2272994,14.6252137 L10.3999819,15.4477946 L9.64021877,16.2031995 C9.42596189,16.4177952 9.24795496,16.596427 9.10136101,16.7537468 C8.9561801,16.9044965 8.87545561,16.9879984 8.86061867,17.0027584 C8.78319128,17.0634003 8.69918779,17.1272462 8.60851765,17.1977341 C8.51455042,17.26491 8.42552883,17.322294 8.33163408,17.3682119 C8.2393154,17.4156418 8.09752216,17.4714597 7.90639931,17.5401297 C7.71188877,17.6090696 7.51576593,17.6761915 7.31799454,17.7335574 C7.11861083,17.7974753 6.92736116,17.8516192 6.74276002,17.8941532 C6.55980743,17.9415831 6.42136566,17.974451 6.32906509,17.987501 C6.14623931,18.017003 6.02254388,17.994143 5.9599353,17.9203611 C5.89897801,17.8433392 5.88406587,17.7122094 5.91375784,17.5304457 C5.9286129,17.4403378 5.9599353,17.302674 6.00605841,17.1208022 C6.05221775,16.9356365 6.10663795,16.7487428 6.16763422,16.560373 C6.2286305,16.3687453 6.28634779,16.1884575 6.33901074,16.0229118 C6.39507947,15.852542 6.43799607,15.7410682 6.46587645,15.6771503 C6.55980747,15.4804645 6.68172755,15.3052888 6.83665481,15.154431 L6.83665481,15.154431 L6.83665481,15.154431 Z M13.3883464,1.44212201 C13.3883464,0.645533108 12.621989,0 11.8210846,0 L1.56724366,0 C0.766321138,0 0,0.645533108 0,1.44212201 L0,15.2580028 C0,16.0544297 0.766321138,16.8165127 1.56724366,16.8165127 L3.67278349,16.8165127 L13.3883464,7.15740206 L13.3883464,1.44212201 L13.3883464,1.44212201 Z M6.38279691,11.3503883 L2.65486858,11.3503883 L2.65486858,10.3966776 L6.38279691,10.3966776 L6.38279691,11.3503883 Z M6.38279691,9.18740324 L2.65486858,9.18740324 L2.65486858,8.23365658 L6.38279691,8.23365658 L6.38279691,9.18740324 Z M10.7334597,7.02431025 L2.65486858,7.02431025 L2.65486858,6.07056358 L10.7334597,6.07056358 L10.7334597,7.02431025 Z M10.7334597,4.86119926 L2.65486858,4.86119926 L2.65486858,3.90734459 L10.7334597,3.90734459 L10.7334597,4.86119926 Z" id="形状"></path>
            </g>
        </g>
    </g>
</svg>