<?xml version="1.0" encoding="UTF-8"?>
<svg width="16px" height="17px" viewBox="0 0 16 17" version="1.1" xmlns="http://www.w3.org/2000/svg" xmlns:xlink="http://www.w3.org/1999/xlink">
    <title>shouyetianchong</title>
    <g id="页面-1" stroke="none" stroke-width="1" fill="none" fill-rule="evenodd">
        <g id="pc图标" transform="translate(-35.000000, -45.000000)" fill="#FFFFFF" fill-rule="nonzero">
            <g id="shouyetianchong" transform="translate(35.000000, 45.000000)">
                <path d="M13.2389792,17 L14.2154053,17 C14.5276229,17 14.7806746,16.7417062 14.7806746,16.4230643 L14.7803704,16.420794 C14.7803704,16.420794 14.7803704,13.7763631 14.7803704,13.2955769 C14.7803704,12.814713 14.7803704,8.53715753 14.7803704,8.53715753 C14.7803704,8.19198963 15.0167105,7.94376679 15.3857554,7.91101193 L15.3875805,7.9104686 C15.7670251,7.87569567 16,7.63065518 16,7.28540966 C16,7.1281941 15.9431537,6.98454232 15.8492526,6.87473204 L8.22049344,0.0869668223 C8.22049344,0.0869668223 7.9989068,-0.108708528 7.77952558,0.0869668223 L0.150747356,6.87473204 C0.0568463355,6.98454232 0,7.1281941 0,7.28540966 C0,7.63065518 0.274155237,7.9104686 0.612419451,7.9104686 C0.612419451,7.9104686 1.22559939,7.88809517 1.21964858,8.53715753 C1.21964858,8.53715753 1.21964858,12.814713 1.21964858,13.2955769 C1.21964858,13.7763631 1.21964858,16.420794 1.21964858,16.420794 L1.21926834,16.4230643 C1.21926834,16.7417256 1.47241515,17 1.7846137,17 L6.05481916,17 C6.05481916,17 6.64898695,17.0009314 6.64898695,16.3158348 L6.64898695,14.1258194 C6.64898695,14.1258194 6.48928487,12.9825429 7.8674948,12.9200021 C7.8674948,12.9200021 9.33394014,12.7841509 9.35105107,14.1258194 L9.35105107,16.3158348 C9.35105107,17.0009508 9.94529491,17 9.94529491,17 L11.1320144,17 L12.8571011,16.9978849 L13.2389792,17 Z" id="路径"></path>
            </g>
        </g>
    </g>
</svg>