<?xml version="1.0" encoding="UTF-8"?>
<svg width="16px" height="15px" viewBox="0 0 16 15" version="1.1" xmlns="http://www.w3.org/2000/svg" xmlns:xlink="http://www.w3.org/1999/xlink">
    <title>xiaoxi-2</title>
    <g id="页面-1" stroke="none" stroke-width="1" fill="none" fill-rule="evenodd">
        <g id="pc图标" transform="translate(-36.000000, -498.000000)" fill="#FFFFFF" fill-rule="nonzero">
            <g id="xiaoxi-2" transform="translate(36.000000, 498.000000)">
                <path d="M9.06584361,5.6 L15,0.426666672 C14.7119342,0.16 14.308642,0 13.9053498,0 L2.0946502,0 C1.63374484,0 1.28806583,0.16 1,0.426666672 L6.93415637,5.6 C7.51028805,6.13333333 8.43209877,6.13333333 9.06584361,5.6 Z" id="路径"></path>
                <path d="M9.2046332,8.28 C8.58687258,8.98 7.53667953,8.98 6.91891892,8.28 L0,1 L0,13.11 C0,14.16 0.741312742,15 1.66795367,15 L14.3320463,15 C15.2586873,15 16,14.16 16,13.11 L16,1 L9.2046332,8.28 Z" id="路径"></path>
            </g>
        </g>
    </g>
</svg>