<?xml version="1.0" encoding="UTF-8"?>
<svg width="14px" height="16px" viewBox="0 0 14 16" version="1.1" xmlns="http://www.w3.org/2000/svg" xmlns:xlink="http://www.w3.org/1999/xlink">
    <title>yunyingjihua</title>
    <g id="页面-1" stroke="none" stroke-width="1" fill="none" fill-rule="evenodd">
        <g id="pc图标" transform="translate(-37.000000, -196.000000)" fill="#FFFFFF" fill-rule="nonzero">
            <g id="yunyingjihua" transform="translate(37.000000, 196.000000)">
                <path d="M12.8673071,1.15143756 L11.0421795,1.15143756 C11.0379515,1.15087269 11.034791,1.14704139 11.0348244,1.14252151 L11.0348244,1.03775796 C11.0411338,0.597332513 10.7734575,0.205012436 10.3770639,0.0737104822 C10.1122675,-0.00379170512 9.82861548,0.050514257 9.60607344,0.221318757 C9.3835314,0.392123257 9.24620665,0.660923531 9.23281297,0.951941015 L9.23281297,1.15143756 L4.7661363,1.15143756 L4.7661363,0.99986477 C4.77422987,0.558691128 4.50659135,0.16489031 4.1094266,0.033588267 C3.8384438,-0.0444215883 3.54867669,0.0151232256 3.32476551,0.19482982 C3.10085433,0.374536414 2.96806156,0.654129636 2.96517562,0.951941015 L2.96517562,1.15143756 L1.13269288,1.15143756 C0.832380711,1.15114179 0.544273093,1.27747342 0.331821715,1.50260966 C0.119370336,1.7277459 0,2.0332217 0,2.35176027 L0,14.7996752 C0,15.1182138 0.11937033,15.4236896 0.33182171,15.6488258 C0.544273089,15.8739621 0.832380709,16.0002937 1.13269288,16 L12.8673071,16 C13.492466,16 13.9994201,15.4627754 14,14.7996752 L14,2.35176027 C13.9994201,1.6886601 13.492466,1.15143727 12.8673071,1.15143756 Z M2.98198739,12.2730906 L2.49549684,12.2730906 C2.20534424,12.2730906 1.97012908,12.0236 1.97012908,11.7158378 C1.97012908,11.4080755 2.20534424,11.1585849 2.49549684,11.1585849 L2.98198739,11.1585849 C3.27213999,11.1585849 3.50735515,11.4080755 3.50735515,11.7158378 C3.50735515,12.0236 3.27213999,12.2730906 2.98198739,12.2730906 Z M2.98198739,10.1622167 L2.49549684,10.1622167 C2.2053786,10.1621652 1.97021706,9.91268965 1.97021706,9.60496382 C1.97021706,9.29723799 2.2053786,9.04776248 2.49549684,9.04771093 L2.98198739,9.04771093 C3.16970416,9.0476776 3.34317507,9.1538821 3.43704253,9.32631044 C3.53090999,9.49873878 3.53090999,9.71118887 3.43704253,9.88361721 C3.34317507,10.0560455 3.16970416,10.16225 2.98198739,10.1622167 L2.98198739,10.1622167 Z M2.98198739,8.05134279 L2.49549684,8.05134279 C2.20534424,8.05134279 1.97012908,7.80185217 1.97012908,7.4940899 C1.97012908,7.18632762 2.20534424,6.93683701 2.49549684,6.93683701 L2.98198739,6.93683701 C3.27213999,6.93683701 3.50735515,7.18632762 3.50735515,7.4940899 C3.50735515,7.80185217 3.27213999,8.05134279 2.98198739,8.05134279 Z M11.24287,12.2730906 L4.72830981,12.2730906 C4.43815721,12.2730906 4.20294205,12.0236 4.20294205,11.7158378 C4.20294205,11.4080755 4.43815721,11.1585849 4.72830981,11.1585849 L11.24287,11.1585849 C11.5330226,11.1585849 11.7682378,11.4080755 11.7682378,11.7158378 C11.7682378,12.0236 11.5330226,12.2730906 11.24287,12.2730906 L11.24287,12.2730906 Z M11.24287,10.1622167 L4.72830981,10.1622167 C4.43819157,10.1621652 4.20303003,9.91268965 4.20303003,9.60496382 C4.20303003,9.29723799 4.43819157,9.04776248 4.72830981,9.04771094 L11.24287,9.04771094 C11.5329882,9.04776248 11.7681498,9.29723799 11.7681498,9.60496382 C11.7681498,9.91268965 11.5329882,10.1621652 11.24287,10.1622167 L11.24287,10.1622167 Z M11.24287,8.05134279 L4.72830981,8.05134279 C4.43815721,8.05134279 4.20294205,7.80185217 4.20294205,7.4940899 C4.20294205,7.18632762 4.43815721,6.93683701 4.72830981,6.93683701 L11.24287,6.93683701 C11.5330226,6.93683701 11.7682378,7.18632762 11.7682378,7.4940899 C11.7682378,7.80185217 11.5330226,8.05134279 11.24287,8.05134279 L11.24287,8.05134279 Z M12.7979586,2.82319621 L12.7979586,3.69585423 C12.7982376,3.85507214 12.738803,4.00787026 12.6327592,4.12055901 C12.5267155,4.23324775 12.3827708,4.29657284 12.2326629,4.29657284 L1.76733714,4.29657284 C1.45455263,4.29657284 1.20099069,4.02762196 1.20099069,3.69585423 L1.20099069,2.50444756 C1.20505981,2.44045938 1.25309252,2.38951151 1.3134194,2.38519013 L2.96517562,2.38519013 L2.96517562,2.50890559 C2.96012392,2.94392503 3.2243769,3.33107949 3.61558091,3.46180802 C3.88795807,3.54433154 4.18104455,3.48710229 4.40785908,3.3071046 C4.63467361,3.12710691 4.76915415,2.84502335 4.77138998,2.54456977 L4.77138998,2.38519013 L9.23281297,2.38519013 L9.23281297,2.50556206 C9.22719476,2.94188127 9.49194536,3.33049798 9.88426899,3.46180802 C10.1504292,3.54327167 10.4371013,3.4910607 10.6623968,3.32008929 C10.8876923,3.14911789 11.0268348,2.87818823 11.0400781,2.58469197 L11.0400781,2.38519013 L12.6907836,2.38519013 C12.7206875,2.38489478 12.7494492,2.39736223 12.7705954,2.41979184 C12.7917416,2.44222146 12.8034957,2.47272871 12.8032173,2.50444756 L12.7979586,2.82319621 Z" id="形状"></path>
            </g>
        </g>
    </g>
</svg>