<?xml version="1.0" encoding="UTF-8"?>
<svg width="14px" height="16px" viewBox="0 0 14 16" version="1.1" xmlns="http://www.w3.org/2000/svg" xmlns:xlink="http://www.w3.org/1999/xlink">
    <title>dingdandingdanmingxishouzhimingxi</title>
    <g id="页面-1" stroke="none" stroke-width="1" fill="none" fill-rule="evenodd">
        <g id="pc图标" transform="translate(-37.000000, -95.000000)" fill="#FFFFFF" fill-rule="nonzero">
            <g id="dingdandingdanmingxishouzhimingxi" transform="translate(37.000000, 95.000000)">
                <path d="M12.834766,0 L1.165234,0 C0.52913085,0 0.0133715377,0.47510605 0,1.06809556 L0.0802292264,1.06809556 C0.0534861509,1.06809556 0.0286532951,1.06988167 0,1.07166778 L0,14.908685 C0,15.510605 0.523400191,16 1.16714422,16 L12.834766,16 C13.4765998,16 14,15.510605 14,14.908685 L14,1.06988167 C13.9866285,0.47510605 13.4689589,0 12.834766,0 Z M7,11.7647059 C7,12.0235294 6.72571429,12.2352941 6.39047619,12.2352941 L3.60952381,12.2352941 C3.27428571,12.2352941 3,12.0235294 3,11.7647059 C3,11.5058824 3.27428571,11.2941176 3.60952381,11.2941176 L6.39047619,11.2941176 C6.72571429,11.2941176 7,11.5058824 7,11.7647059 Z M9,8 C9,8.25882353 8.712,8.47058824 8.36,8.47058824 L3.64,8.47058824 C3.288,8.47058824 3,8.25882353 3,8 C3,7.74117647 3.288,7.52941176 3.64,7.52941176 L8.36,7.52941176 C8.712,7.52941176 9,7.74117647 9,8 Z M11,4.23529412 C11,4.49411765 10.7375,4.70588235 10.4166667,4.70588235 L4.58333333,4.70588235 C4.2625,4.70588235 4,4.49411765 4,4.23529412 C4,3.97647059 4.2625,3.76470588 4.58333333,3.76470588 L10.4166667,3.76470588 C10.7375,3.76470588 11,3.97647059 11,4.23529412 Z" id="形状"></path>
            </g>
        </g>
    </g>
</svg>