<?xml version="1.0" encoding="UTF-8"?>
<svg width="14px" height="16px" viewBox="0 0 14 16" version="1.1" xmlns="http://www.w3.org/2000/svg" xmlns:xlink="http://www.w3.org/1999/xlink">
    <title>wenjuantiaocha</title>
    <g id="页面-1" stroke="none" stroke-width="1" fill="none" fill-rule="evenodd">
        <g id="pc图标" transform="translate(-37.000000, -296.000000)" fill="#FFFFFF" fill-rule="nonzero">
            <g id="wenjuantiaocha" transform="translate(37.000000, 296.000000)">
                <path d="M13.0869565,0 L0.913043479,0 C0.410869566,0 0,0.432 0,0.959999999 L0,15.04 C0,15.568 0.410869566,16 0.913043479,16 L13.0869565,16 C13.5891304,16 14,15.568 14,15.04 L14,0.959999999 C14,0.432 13.5891304,0 13.0869565,0 Z M6.00326087,9.608 L3.63695651,12.096 C3.40108694,12.344 3.01304346,12.344 2.77717391,12.096 L1.70434782,10.968 C1.46847825,10.72 1.46847825,10.312 1.70434782,10.064 C1.94021739,9.81599999 2.32826087,9.81599999 2.56413043,10.064 L3.21086956,10.744 L5.15108695,8.70400001 C5.38695653,8.456 5.775,8.456 6.01086956,8.70400001 C6.23913043,8.95200001 6.23913043,9.36000001 6.00326087,9.608 Z M6.00326087,4.808 L3.63695651,7.29599999 C3.40108694,7.544 3.01304346,7.544 2.77717391,7.29599999 L1.69673912,6.168 C1.46086955,5.91999999 1.46086955,5.51199999 1.69673912,5.264 C1.93260869,5.016 2.32065217,5.016 2.55652174,5.264 L3.20326086,5.94400001 L5.14347825,3.90400001 C5.37934782,3.656 5.7673913,3.656 6.00326087,3.90400001 C6.23913045,4.15200002 6.23913045,4.56000002 6.00326087,4.808 Z M11.8695652,11.488 L8.21739131,11.488 C7.88260871,11.488 7.60869565,11.2 7.60869565,10.848 C7.60869565,10.496 7.88260869,10.208 8.21739131,10.208 L11.8695652,10.208 C12.2043478,10.208 12.4782609,10.496 12.4782609,10.848 C12.4782609,11.2 12.2043478,11.488 11.8695652,11.488 Z M11.8695652,6.68800001 L8.21739131,6.68800001 C7.88260871,6.68800001 7.60869565,6.40000001 7.60869565,6.048 C7.60869565,5.69599998 7.88260869,5.408 8.21739131,5.408 L11.8695652,5.408 C12.2043478,5.408 12.4782609,5.696 12.4782609,6.048 C12.4782609,6.39999999 12.2043478,6.68800001 11.8695652,6.68800001 Z" id="形状"></path>
            </g>
        </g>
    </g>
</svg>