<?xml version="1.0" encoding="UTF-8"?>
<svg width="14px" height="16px" viewBox="0 0 14 16" version="1.1" xmlns="http://www.w3.org/2000/svg" xmlns:xlink="http://www.w3.org/1999/xlink">
    <title>wenjuanguanli</title>
    <g id="页面-1" stroke="none" stroke-width="1" fill="none" fill-rule="evenodd">
        <g id="pc图标" transform="translate(-38.000000, -246.000000)" fill="#FFFFFF" fill-rule="nonzero">
            <g id="wenjuanguanli" transform="translate(38.000000, 246.000000)">
                <path d="M13.8168853,13.3149254 L13.237246,12.75281 C13.2460366,12.6701308 13.2500938,12.584485 13.2500938,12.4980652 C13.2500938,12.4115165 13.2461718,12.3279344 13.237246,12.2433204 L13.8158033,11.6812051 C13.9910992,11.5846633 14.0514605,11.3710567 13.950773,11.2035747 L13.4007513,10.2944905 C13.2994759,10.1273774 13.0756174,10.0697781 12.899957,10.1656348 L12.0996058,10.3622075 C11.9544879,10.2632498 11.7996852,10.1778954 11.637355,10.1073337 L11.4165078,9.34967754 C11.4162099,9.15667378 11.2522357,9.00028414 11.0498717,9 L9.94779974,9 C9.74543577,9.00028414 9.58146161,9.15667378 9.58116368,9.34967754 L9.36031651,10.1092685 C9.19797151,10.1797518 9.04316528,10.265065 8.89806567,10.3640133 L8.09771445,10.1675696 C8.01340596,10.1212483 7.91324524,10.1088014 7.81930651,10.1329721 C7.72536778,10.1571428 7.64536153,10.2159471 7.59692017,10.2964253 L7.04892707,11.2055095 C7.00035932,11.2859183 6.98730881,11.3814462 7.01265172,11.4710398 C7.03799463,11.5606335 7.09965081,11.6369391 7.18403198,11.6831399 L7.76258935,12.2452552 C7.75382965,12.3299109 7.74954162,12.4149333 7.74974154,12.5 C7.74974154,12.5855169 7.7536635,12.6701308 7.76258935,12.7547448 L7.18403198,13.3168601 C7.00881434,13.4134512 6.94842152,13.6269552 7.04892707,13.7944905 L7.59894877,14.7035747 C7.70017531,14.8707485 7.92409292,14.9283631 8.09974305,14.8324304 L8.90009428,14.6359867 C9.04521543,14.7349031 9.20001833,14.8202145 9.36234512,14.8907315 L9.58319229,15.6503225 C9.58349021,15.8433262 9.74746437,15.9997159 9.94982834,16 L11.0508184,16 C11.2531824,15.9997159 11.4171565,15.8433262 11.4174545,15.6503225 L11.6381664,14.8907315 C11.8005379,14.8202973 11.955349,14.7349815 12.1004172,14.6359867 L12.8998218,14.8324304 C12.9841303,14.8787517 13.084291,14.8911986 13.1782297,14.8670279 C13.2721685,14.8428572 13.3521747,14.7840529 13.4006161,14.7035747 L13.9506378,13.7944905 C14.0520307,13.6267696 13.9922513,13.4124327 13.8168853,13.3149254 L13.8168853,13.3149254 Z M10.5001205,13.722904 C9.79146212,13.722904 9.21574479,13.1738161 9.21574479,12.4979362 C9.21574479,11.8220564 9.79146212,11.2729685 10.5001205,11.2729685 C11.2087789,11.2729685 11.7844962,11.8219274 11.7844962,12.4979362 C11.7824676,13.174848 11.2087789,13.722904 10.5001205,13.722904 Z" id="形状"></path>
                <path d="M2.1937311,14.575299 C1.79763311,14.5748794 1.47664068,14.2650864 1.47620589,13.8828083 L1.47620589,4.16585768 L11.5237941,4.16585768 L11.5237941,8.63449764 L13,8.63449764 L13,2.11719171 C13,0.949842962 12.0158189,0 10.8062689,0 L2.1937311,0 C0.984049601,0 0,0.949842962 0,2.11719171 L0,13.8828083 C0,15.050157 0.984049601,16 2.1937311,16 L7.15736985,16 L7.15736985,14.575299 L2.1937311,14.575299 Z" id="路径"></path>
                <path d="M9.30821496,6 L2.70496604,6 C2.31562405,6 2,6.32902558 2,6.7348992 C2,7.14077283 2.31562405,7.46979841 2.70496604,7.46979841 L9.30821496,7.46979841 C9.69237113,7.46223939 10,7.13543814 10,6.7348992 C10,6.33436027 9.69237113,6.00755902 9.30821496,6 L9.30821496,6 Z M5.68154515,8.81104836 L2.69065074,8.81104836 C2.31079283,8.81104836 2,9.13503759 2,9.53102442 C2,9.92701126 2.31079283,10.2510005 2.69065074,10.2510005 L5.68154515,10.2510005 C6.06140306,10.2510005 6.37219589,9.92701126 6.37219589,9.53102442 C6.37219589,9.13503759 6.06140306,8.81104836 5.68154515,8.81104836 L5.68154515,8.81104836 Z M5.68154515,11.5600479 L2.69065074,11.5600479 C2.31079283,11.5600479 2,11.8840371 2,12.2800239 C2,12.6760108 2.31079283,13 2.69065074,13 L5.68154515,13 C6.06140306,13 6.37219589,12.6760108 6.37219589,12.2800239 C6.37219589,11.8840371 6.06140306,11.5600479 5.68154515,11.5600479 L5.68154515,11.5600479 Z" id="形状"></path>
            </g>
        </g>
    </g>
</svg>