<?xml version="1.0" encoding="UTF-8"?>
<svg width="18px" height="16px" viewBox="0 0 18 16" version="1.1" xmlns="http://www.w3.org/2000/svg" xmlns:xlink="http://www.w3.org/1999/xlink">
    <title>08_zizhanghaoguanli</title>
    <g id="页面-1" stroke="none" stroke-width="1" fill="none" fill-rule="evenodd">
        <g id="pc图标" transform="translate(-35.000000, -144.000000)" fill="#FFFFFF" fill-rule="nonzero">
            <g id="08_zizhanghaoguanli" transform="translate(35.000000, 144.000000)">
                <path d="M15.7632346,13.8455615 L13.2665521,13.8455615 C12.7177586,11.6811229 10.8898282,9.99986082 8.62567517,9.6296743 C9.16393803,9.23307534 9.61709924,8.73086786 9.95297527,8.15430968 C10.0999937,8.13979993 10.2476224,8.13245395 10.3953406,8.13245395 L13.5266529,8.13245395 C15.9870091,8.13245395 18,10.1100879 18,12.5270632 C18,13.2522197 16.5013741,13.8455615 15.7632346,13.8455615 L15.7632346,13.8455615 Z M11.9609662,7.03137895 C11.4410706,7.03137895 10.9471136,6.92232712 10.5012381,6.72636785 C10.5677491,6.40612906 10.6012068,6.07978449 10.6010744,5.75257153 C10.6010744,4.22075315 9.87703684,2.8554919 8.747144,1.96800507 C9.3297332,0.802414439 10.5498501,0 11.9609662,0 C13.9375082,0 15.5396438,1.57400406 15.5396438,3.51567916 C15.5396438,5.45735427 13.9375082,7.03137895 11.9609662,7.03137895 L11.9609662,7.03137895 Z M6.03905424,9.18577625 C4.06267545,9.18577625 2.46035619,7.61162787 2.46035619,5.67013833 C2.46035619,3.72833951 4.06267545,2.15443854 6.03905424,2.15443854 C8.01541263,2.15443854 9.61765026,3.72833951 9.61765026,5.67013833 C9.61765026,7.61162787 8.01541263,9.18577625 6.03905424,9.18577625 Z M7.60465939,10.2869131 C10.0649339,10.2869131 12.0779044,12.2644852 12.0779044,14.6815224 C12.0779044,15.4066789 10.5793806,16 9.84132272,16 L2.23668373,16 C1.49862586,16 0,15.4066789 0,14.6815224 C0,12.2644852 2.01299087,10.2869131 4.47334706,10.2869131 L7.60465939,10.2869131 Z" id="形状"></path>
            </g>
        </g>
    </g>
</svg>